<?xml version="1.0" encoding="UTF-8" standalone="no"?>
<svg
   xmlns:dc="http://purl.org/dc/elements/1.1/"
   xmlns:cc="http://creativecommons.org/ns#"
   xmlns:rdf="http://www.w3.org/1999/02/22-rdf-syntax-ns#"
   xmlns:svg="http://www.w3.org/2000/svg"
   xmlns="http://www.w3.org/2000/svg"
   xmlns:sodipodi="http://sodipodi.sourceforge.net/DTD/sodipodi-0.dtd"
   xmlns:inkscape="http://www.inkscape.org/namespaces/inkscape"
   width="965pt"
   height="965pt"
   viewBox="0 0 720 965"
   version="1.1"
   id="svg2"
   sodipodi:version="0.32"
   inkscape:version="0.46"
   sodipodi:docname="fleur_de_lis.svg"
   inkscape:output_extension="org.inkscape.output.svg.inkscape">
  <metadata
     id="metadata13">
    <rdf:RDF>
      <cc:Work
         rdf:about="">
        <dc:format>image/svg+xml</dc:format>
        <dc:type
           rdf:resource="http://purl.org/dc/dcmitype/StillImage" />
      </cc:Work>
    </rdf:RDF>
  </metadata>
  <defs
     id="defs11">
    <inkscape:perspective
       sodipodi:type="inkscape:persp3d"
       inkscape:vp_x="0 : 612.5 : 1"
       inkscape:vp_y="0 : 1000 : 0"
       inkscape:vp_z="918.75 : 612.5 : 1"
       inkscape:persp3d-origin="459.375 : 408.33333 : 1"
       id="perspective15" />
  </defs>
  <sodipodi:namedview
     inkscape:window-height="669"
     inkscape:window-width="640"
     inkscape:pageshadow="2"
     inkscape:pageopacity="0.0"
     guidetolerance="10.0"
     gridtolerance="10.0"
     objecttolerance="10.0"
     borderopacity="1.0"
     bordercolor="#666666"
     pagecolor="#ffffff"
     id="base"
     showgrid="false"
     inkscape:zoom="0.37714286"
     inkscape:cx="459.375"
     inkscape:cy="612.5"
     inkscape:window-x="46"
     inkscape:window-y="46"
     inkscape:current-layer="svg2" />
  <path
     fill="#00008d"
     d=" M 330.18 38.17 C 340.56 27.17 350.97 16.13 362.21 6.00 C 363.36 6.72 364.61 7.34 365.64 8.26 C 394.83 36.93 423.84 66.39 446.04 100.98 C 466.10 131.62 482.22 165.07 491.62 200.55 C 502.68 241.85 504.08 286.74 489.49 327.36 C 473.60 366.99 456.92 406.30 440.76 445.82 C 462.01 419.24 489.02 396.92 520.30 383.19 C 533.91 377.29 548.08 372.19 562.89 370.45 C 581.44 368.57 600.47 370.28 618.10 376.53 C 637.17 383.11 654.69 393.80 669.98 406.90 C 684.96 419.26 695.70 435.95 703.35 453.62 C 708.41 465.48 711.31 478.19 712.94 490.94 C 712.90 497.30 714.20 503.63 713.25 509.99 C 712.48 541.15 697.33 571.48 673.34 591.30 C 665.51 598.15 656.70 603.82 647.55 608.74 C 645.54 609.74 643.54 610.74 641.54 611.74 C 623.65 620.27 604.40 625.63 584.93 629.09 C 581.66 629.76 578.34 630.16 575.11 631.01 C 578.20 624.25 582.82 618.20 585.01 611.03 C 587.79 603.70 588.16 595.76 588.02 588.00 C 587.84 574.33 583.03 560.51 573.40 550.62 C 565.47 540.87 552.72 537.12 540.78 535.27 C 525.48 533.52 509.06 534.58 495.60 542.76 C 482.28 550.72 473.37 564.05 466.47 577.61 C 463.12 584.88 459.40 592.06 457.34 599.83 C 466.95 600.07 476.55 600.43 486.14 601.10 C 499.86 603.45 511.14 616.19 511.38 630.18 C 512.73 645.42 501.08 660.07 486.18 662.92 C 475.02 663.04 463.87 663.72 452.71 663.96 C 456.03 681.78 464.04 698.60 475.21 712.83 C 482.29 722.30 490.82 730.50 499.25 738.75 C 524.68 762.00 551.71 783.44 577.60 806.15 C 571.37 805.77 565.10 806.34 558.90 805.55 C 522.56 802.48 488.03 788.83 455.97 772.05 C 442.29 764.91 429.34 756.47 416.88 747.38 C 422.23 765.61 433.68 781.83 448.82 793.25 C 459.69 802.02 472.57 807.63 485.21 813.30 C 479.25 828.50 468.65 841.72 455.44 851.26 C 447.36 857.37 438.02 861.94 428.07 863.98 C 423.45 865.09 418.66 865.02 414.02 866.04 C 410.50 879.02 407.64 892.33 401.72 904.51 C 398.38 911.36 394.98 918.37 389.82 924.06 C 382.59 934.22 373.90 943.24 364.97 951.89 C 363.65 953.51 361.26 953.27 359.96 951.77 C 352.20 944.32 344.80 936.46 338.10 928.02 C 335.19 923.56 331.23 919.85 328.92 915.01 C 323.85 906.54 319.92 897.43 317.00 888.02 C 314.61 880.73 313.23 873.16 310.99 865.83 C 307.98 865.35 304.95 865.01 301.91 864.86 C 287.09 862.89 273.42 855.51 262.48 845.48 C 252.66 836.71 244.79 825.75 239.92 813.50 C 244.64 810.91 249.63 808.86 254.52 806.62 C 268.95 799.49 282.41 789.92 292.60 777.36 C 299.63 768.54 305.10 758.42 308.19 747.55 C 306.75 748.31 305.39 749.21 304.11 750.21 C 286.98 762.84 268.20 773.06 248.95 782.04 C 222.68 793.77 194.95 803.32 166.10 805.52 C 159.89 806.35 153.60 805.79 147.36 806.14 C 172.54 784.39 198.39 763.41 223.20 741.24 C 231.91 732.60 241.00 724.28 248.46 714.49 C 260.44 700.01 269.05 682.49 272.25 663.93 C 263.52 663.69 254.80 662.90 246.05 663.13 C 228.50 661.78 214.50 643.08 218.67 625.84 C 221.30 611.48 235.24 599.83 249.95 600.66 C 256.01 600.39 262.07 600.06 268.14 600.04 C 264.86 591.50 261.75 582.85 257.18 574.90 C 250.27 562.16 241.71 549.42 228.76 542.18 C 218.60 536.24 206.61 534.39 194.99 534.74 C 180.46 534.47 165.03 537.97 154.04 547.99 C 142.15 558.80 136.78 575.27 136.97 591.03 C 136.67 599.80 138.85 608.49 142.30 616.50 C 144.65 621.42 147.85 625.90 149.99 630.92 C 130.73 627.59 111.44 623.50 93.33 615.95 C 74.03 608.16 55.70 597.00 41.64 581.50 C 25.31 564.63 15.18 542.13 12.45 518.88 C 11.46 509.94 11.78 500.91 12.05 491.93 C 13.31 480.07 16.14 468.39 20.12 457.15 C 27.80 438.37 38.85 420.54 54.55 407.43 C 74.83 389.66 99.50 376.37 126.18 371.54 C 145.07 368.19 164.79 369.19 183.10 375.03 C 215.82 385.13 245.62 404.04 269.20 428.80 C 274.63 434.10 279.34 440.05 284.26 445.80 C 269.68 409.53 254.23 373.63 239.52 337.42 C 234.00 324.30 229.91 310.61 227.51 296.58 C 223.74 272.03 224.14 246.85 228.57 222.41 C 235.93 180.80 253.43 141.55 275.87 105.97 C 291.19 81.30 309.94 58.93 330.18 38.17 Z"
     id="path6" />
  <path
     fill="#fefefe"
     d=" M 470.27 158.22 C 470.71 158.91 470.71 158.91 470.27 158.22 Z"
     id="path8" />
</svg>
